<svg width="32" height="32" viewBox="0 0 32 32" fill="none" xmlns="http://www.w3.org/2000/svg">
<g clip-path="url(#clip0_55_104)">
<path d="M10.6667 14.3467H9.89337C8.83804 14.3085 7.78613 14.4877 6.80293 14.873C5.81972 15.2583 4.9262 15.8416 4.17781 16.5867L3.96448 16.8356V24.1956H7.59114V20.0178L8.08003 19.4667L8.30225 19.2089C9.45952 18.02 10.9003 17.1452 12.4889 16.6667C11.6935 16.0615 11.0662 15.2628 10.6667 14.3467Z" fill="currentColor"/>
<path d="M27.8577 16.56C27.1093 15.815 26.2158 15.2317 25.2326 14.8463C24.2494 14.461 23.1975 14.2819 22.1422 14.32C21.8185 14.3209 21.4951 14.3387 21.1733 14.3733C20.7663 15.2328 20.1561 15.9803 19.3955 16.5511C21.0915 17.0203 22.6278 17.9421 23.84 19.2178L24.0622 19.4667L24.5422 20.0178V24.2044H28.0444V16.8089L27.8577 16.56Z" fill="currentColor"/>
<path d="M9.86664 12.6133H10.1422C10.0142 11.514 10.2071 10.4011 10.6976 9.40897C11.1881 8.41684 11.9554 7.58791 12.9066 7.02222C12.5618 6.49542 12.0861 6.06721 11.526 5.77951C10.966 5.49181 10.3408 5.35449 9.71173 5.381C9.08267 5.40751 8.47127 5.59694 7.93741 5.93074C7.40355 6.26453 6.96553 6.73125 6.66624 7.2852C6.36695 7.83914 6.21666 8.46132 6.23007 9.0908C6.24349 9.72028 6.42016 10.3355 6.74277 10.8762C7.06539 11.4169 7.5229 11.8645 8.0705 12.1753C8.6181 12.486 9.23701 12.6492 9.86664 12.6489V12.6133Z" fill="currentColor"/>
<path d="M21.7156 11.9467C21.7264 12.151 21.7264 12.3557 21.7156 12.56C21.8862 12.587 22.0585 12.6019 22.2311 12.6044H22.4C23.0269 12.571 23.6344 12.3758 24.1634 12.0379C24.6925 11.7 25.125 11.2309 25.4189 10.6762C25.7128 10.1215 25.8581 9.50015 25.8406 8.87265C25.8231 8.24514 25.6434 7.63286 25.319 7.09542C24.9946 6.55798 24.5366 6.11369 23.9896 5.8058C23.4425 5.49791 22.825 5.33692 22.1973 5.3385C21.5696 5.34008 20.9529 5.50417 20.4074 5.81481C19.8619 6.12545 19.4061 6.57204 19.0845 7.11111C19.889 7.63638 20.5505 8.35315 21.0098 9.19712C21.469 10.0411 21.7115 10.9859 21.7156 11.9467Z" fill="currentColor"/>
<path d="M15.8845 15.9289C18.0789 15.9289 19.8578 14.15 19.8578 11.9556C19.8578 9.76115 18.0789 7.98222 15.8845 7.98222C13.6901 7.98222 11.9111 9.76115 11.9111 11.9556C11.9111 14.15 13.6901 15.9289 15.8845 15.9289Z" fill="currentColor"/>
<path d="M16.0978 18.0445C14.9369 17.9976 13.7786 18.186 12.6925 18.5985C11.6063 19.0109 10.6149 19.6389 9.77776 20.4445L9.55554 20.6933V26.32C9.55901 26.5033 9.59855 26.6841 9.67191 26.8521C9.74527 27.0201 9.851 27.172 9.98307 27.2991C10.1151 27.4262 10.271 27.5261 10.4416 27.5929C10.6123 27.6598 10.7945 27.6924 10.9778 27.6889H21.1911C21.3744 27.6924 21.5566 27.6598 21.7272 27.5929C21.8979 27.5261 22.0537 27.4262 22.1858 27.2991C22.3179 27.172 22.4236 27.0201 22.497 26.8521C22.5703 26.6841 22.6099 26.5033 22.6133 26.32V20.7111L22.4 20.4445C21.5683 19.6364 20.5803 19.0067 19.4966 18.594C18.4129 18.1813 17.2563 17.9943 16.0978 18.0445Z" fill="currentColor"/>
</g>
<defs>
<clipPath id="clip0_55_104">
<rect width="32" height="32" fill="white"/>
</clipPath>
</defs>
</svg>
