<svg width="32" height="32" viewBox="0 0 32 32" fill="none" xmlns="http://www.w3.org/2000/svg">
<g clip-path="url(#clip0_55_88)">
<path fill-rule="evenodd" clip-rule="evenodd" d="M17.6373 3.584C17.1692 3.21985 16.593 3.02215 16 3.02215C15.4069 3.02215 14.8308 3.21985 14.3626 3.584L3.18398 12.2773C2.18131 13.06 2.73331 14.6667 4.00398 14.6667H5.33331V25.3333C5.33331 26.0406 5.61426 26.7189 6.11436 27.219C6.61445 27.719 7.29273 28 7.99998 28H14.6666V18.6667C14.6666 18.313 14.8071 17.9739 15.0572 17.7239C15.3072 17.4738 15.6464 17.3333 16 17.3333C16.3536 17.3333 16.6927 17.4738 16.9428 17.7239C17.1928 17.9739 17.3333 18.313 17.3333 18.6667V28H24C24.7072 28 25.3855 27.719 25.8856 27.219C26.3857 26.7189 26.6666 26.0406 26.6666 25.3333V14.6667H27.996C29.2653 14.6667 29.82 13.06 28.816 12.2787L17.6373 3.584Z" fill="currentColor"/>
</g>
<defs>
<clipPath id="clip0_55_88">
<rect width="32" height="32" fill="white"/>
</clipPath>
</defs>
</svg>
