<svg width="32" height="25" viewBox="0 0 25 25" fill="none" xmlns="http://www.w3.org/2000/svg">
<path d="M22.561 18.75C23.9024 18.75 25 17.625 25 16.25V2.5C25 1.125 23.9024 0 22.561 0H9.7561C10.122 0.75 10.3659 1.625 10.3659 2.5H22.561V16.25H11.5854V18.75M16.4634 6.25V8.75H9.14634V25H6.70732V17.5H4.26829V25H1.82927V15H0V8.75C0 7.375 1.09756 6.25 2.43902 6.25H16.4634ZM7.92683 2.5C7.92683 3.875 6.82927 5 5.4878 5C4.14634 5 3.04878 3.875 3.04878 2.5C3.04878 1.125 4.14634 0 5.4878 0C6.82927 0 7.92683 1.125 7.92683 2.5ZM18.9024 5H21.3415V15H18.9024V5ZM15.2439 10H17.6829V15H15.2439V10ZM11.5854 10H14.0244V15H11.5854V10Z" fill="currentColor"/>
</svg>
