<svg width="32" height="25" viewBox="0 0 22 25" fill="none" xmlns="http://www.w3.org/2000/svg">
<path fill-rule="evenodd" clip-rule="evenodd" d="M1.04506 0.877203C1.48493 0.508827 2.10018 0.268582 3.26455 0.137987C4.46341 0.00246404 6.05041 0 8.3274 0H14.6725C16.9495 0 18.5365 0.00246404 19.7353 0.137987C20.8997 0.268582 21.515 0.508827 21.9548 0.877203C22.3933 1.24681 22.6793 1.76426 22.836 2.74126C22.997 3.74783 22.9999 5.08088 22.9999 6.99175V16.6496H4.80985C3.51179 16.6496 2.6263 16.6484 1.8673 16.8196C1.18881 16.9724 0.559185 17.2213 0 17.549V6.99299C0 5.08088 0.00287476 3.74783 0.163874 2.74126C0.320561 1.76426 0.606622 1.24681 1.04506 0.877203ZM5.15629 4.66199C4.84415 4.65936 4.54355 4.76295 4.32041 4.95003C4.09728 5.13712 3.96983 5.39242 3.96604 5.65993C3.96604 6.21188 4.49791 6.65911 5.15485 6.65911H17.845C18.1569 6.66141 18.4572 6.55767 18.68 6.37062C18.9028 6.18358 19.03 5.92846 19.0338 5.66116C19.0304 5.39365 18.9033 5.13822 18.6805 4.95091C18.4576 4.76359 18.1572 4.65969 17.845 4.66199H5.15629ZM3.96604 10.3219C3.96604 9.77121 4.49791 9.32398 5.15485 9.32398H13.0855C13.3976 9.32135 13.6982 9.42494 13.9214 9.61202C14.1445 9.79911 14.2719 10.0544 14.2757 10.3219C14.2723 10.5896 14.1451 10.8453 13.9219 11.0326C13.6987 11.22 13.3979 11.3237 13.0855 11.3211H5.15485C4.84296 11.3234 4.54272 11.2197 4.3199 11.0326C4.09708 10.8456 3.96983 10.5892 3.96604 10.3219Z" fill="currentColor"/>
<path d="M4.9925 18.6467C3.44145 18.6467 2.89951 18.6554 2.48264 18.749C1.92743 18.872 1.41536 19.1087 0.990448 19.4387C0.565534 19.7688 0.240478 20.1823 0.0432129 20.6438C0.0662128 21.1145 0.105025 21.5297 0.163962 21.8993C0.320648 22.8763 0.60671 23.3937 1.04515 23.7633C1.48502 24.1317 2.10026 24.372 3.26463 24.5026C4.4635 24.6381 6.0505 24.6405 8.32748 24.6405H14.6726C16.9496 24.6405 18.5366 24.6381 19.7354 24.5038C20.8998 24.372 21.515 24.1317 21.9549 23.7633C22.2654 23.5009 22.5012 23.1646 22.6665 22.6422H5.15494C4.84305 22.6445 4.54281 22.5408 4.31999 22.3537C4.09717 22.1667 3.96992 21.9115 3.96613 21.6443C3.96613 21.0923 4.498 20.6451 5.15494 20.6451H22.9568C22.9856 20.071 22.9957 19.413 23 18.6467H4.9925Z" fill="currentColor"/>
</svg>
