<svg width="32" height="32" viewBox="0 0 32 32" fill="none" xmlns="http://www.w3.org/2000/svg">
<path d="M17.0023 5.184L27.9578 7.184C28.396 7.264 28.7111 7.60533 28.7111 8V24C28.7111 24.1917 28.6361 24.3776 28.4989 24.5262C28.3617 24.6748 28.1706 24.7772 27.9578 24.816L17.0023 26.816C16.865 26.841 16.7232 26.8388 16.5871 26.8095C16.451 26.7802 16.324 26.7245 16.2153 26.6465C16.1066 26.5685 16.0189 26.4702 15.9586 26.3586C15.8983 26.247 15.8669 26.125 15.8667 26.0013V6C15.8666 5.87621 15.8977 5.75395 15.9579 5.64211C16.018 5.53027 16.1057 5.43167 16.2144 5.35346C16.3232 5.27525 16.4503 5.2194 16.5866 5.18997C16.7229 5.16054 16.8649 5.15894 17.0023 5.184ZM13.6 6.66667L13.6967 25.3293L13.6 25.334H8.49999C8.26619 25.3339 8.04073 25.2573 7.86725 25.119C7.69377 24.9807 7.58458 24.7906 7.56083 24.5853L7.55554 24.5007V7.50067C7.55554 7.06867 7.92728 6.714 8.40328 6.67133L8.49999 6.66667H13.6ZM20.0222 15C19.7216 15 19.4334 15.1054 19.2208 15.2929C19.0083 15.4804 18.8889 15.7348 18.8889 16C18.8889 16.2652 19.0083 16.5196 19.2208 16.7071C19.4334 16.8946 19.7216 17 20.0222 17C20.3228 17 20.6111 16.8946 20.8236 16.7071C21.0361 16.5196 21.1555 16.2652 21.1555 16C21.1555 15.7348 21.0361 15.4804 20.8236 15.2929C20.6111 15.1054 20.3228 15 20.0222 15Z" fill="currentColor"/>
</svg>
