<svg width="32" height="26" viewBox="0 0 22 26" fill="none" xmlns="http://www.w3.org/2000/svg">
<path d="M18.4167 2.9H17.3333V1.65C17.3333 0.900002 16.9 0.400002 16.25 0.400002C15.6 0.400002 15.1667 0.900002 15.1667 1.65V2.9H6.5V1.65C6.5 0.900002 6.06667 0.400002 5.41667 0.400002C4.76667 0.400002 4.33333 0.900002 4.33333 1.65V2.9H3.25C1.40833 2.9 0 4.525 0 6.65V7.9H21.6667V6.65C21.6667 4.525 20.2583 2.9 18.4167 2.9ZM0 21.65C0 23.775 1.40833 25.4 3.25 25.4H18.4167C20.2583 25.4 21.6667 23.775 21.6667 21.65V10.4H0V21.65ZM16.25 12.9C16.9 12.9 17.3333 13.4 17.3333 14.15C17.3333 14.9 16.9 15.4 16.25 15.4C15.6 15.4 15.1667 14.9 15.1667 14.15C15.1667 13.4 15.6 12.9 16.25 12.9ZM16.25 17.9C16.9 17.9 17.3333 18.4 17.3333 19.15C17.3333 19.9 16.9 20.4 16.25 20.4C15.6 20.4 15.1667 19.9 15.1667 19.15C15.1667 18.4 15.6 17.9 16.25 17.9ZM10.8333 12.9C11.4833 12.9 11.9167 13.4 11.9167 14.15C11.9167 14.9 11.4833 15.4 10.8333 15.4C10.1833 15.4 9.75 14.9 9.75 14.15C9.75 13.4 10.1833 12.9 10.8333 12.9ZM10.8333 17.9C11.4833 17.9 11.9167 18.4 11.9167 19.15C11.9167 19.9 11.4833 20.4 10.8333 20.4C10.1833 20.4 9.75 19.9 9.75 19.15C9.75 18.4 10.1833 17.9 10.8333 17.9ZM5.41667 12.9C6.06667 12.9 6.5 13.4 6.5 14.15C6.5 14.9 6.06667 15.4 5.41667 15.4C4.76667 15.4 4.33333 14.9 4.33333 14.15C4.33333 13.4 4.76667 12.9 5.41667 12.9ZM5.41667 17.9C6.06667 17.9 6.5 18.4 6.5 19.15C6.5 19.9 6.06667 20.4 5.41667 20.4C4.76667 20.4 4.33333 19.9 4.33333 19.15C4.33333 18.4 4.76667 17.9 5.41667 17.9Z" fill="currentColor"/>
</svg>
