<svg width="50" height="50" viewBox="0 0 50 50" fill="none" xmlns="http://www.w3.org/2000/svg">
<rect width="50" height="50" rx="12" fill="#5A5BF1"/>
<g clip-path="url(#clip0_209_1169)">
<path d="M24.9999 8.33334C34.2049 8.33334 41.6666 15.795 41.6666 25C41.6666 34.205 34.2049 41.6667 24.9999 41.6667C15.7949 41.6667 8.33325 34.205 8.33325 25C8.33325 15.795 15.7949 8.33334 24.9999 8.33334ZM24.9999 31.6667C21.3332 31.6667 18.0849 33.0467 15.9416 34.7833C18.4036 37.0694 21.6402 38.3378 24.9999 38.3333C28.3596 38.3378 31.5962 37.0694 34.0582 34.7833C31.9149 33.0483 28.6649 31.6667 24.9999 31.6667ZM24.9999 11.6667C22.6029 11.6662 20.25 12.3119 18.1891 13.5359C16.1281 14.7599 14.4352 16.5168 13.2885 18.6218C12.1418 20.7268 11.5839 23.102 11.6733 25.4974C11.7627 27.8927 12.4962 30.2197 13.7966 32.2333C16.5449 29.9867 20.5582 28.3333 24.9999 28.3333C29.4416 28.3333 33.4549 29.9867 36.2032 32.2333C37.5036 30.2197 38.2371 27.8927 38.3266 25.4974C38.416 23.102 37.858 20.7268 36.7113 18.6218C35.5647 16.5168 33.8718 14.7599 31.8108 13.5359C29.7498 12.3119 27.397 11.6662 24.9999 11.6667ZM24.9999 13.3333C26.768 13.3333 28.4637 14.0357 29.714 15.286C30.9642 16.5362 31.6666 18.2319 31.6666 20C31.6666 21.7681 30.9642 23.4638 29.714 24.7141C28.4637 25.9643 26.768 26.6667 24.9999 26.6667C23.2318 26.6667 21.5361 25.9643 20.2859 24.7141C19.0356 23.4638 18.3333 21.7681 18.3333 20C18.3333 18.2319 19.0356 16.5362 20.2859 15.286C21.5361 14.0357 23.2318 13.3333 24.9999 13.3333ZM24.9999 16.6667C24.1159 16.6667 23.268 17.0179 22.6429 17.643C22.0178 18.2681 21.6666 19.116 21.6666 20C21.6666 20.8841 22.0178 21.7319 22.6429 22.357C23.268 22.9822 24.1159 23.3333 24.9999 23.3333C25.884 23.3333 26.7318 22.9822 27.3569 22.357C27.9821 21.7319 28.3332 20.8841 28.3332 20C28.3332 19.116 27.9821 18.2681 27.3569 17.643C26.7318 17.0179 25.884 16.6667 24.9999 16.6667Z" fill="#FAFAFC"/>
</g>
<defs>
<clipPath id="clip0_209_1169">
<rect width="40" height="40" fill="white" transform="translate(5 5)"/>
</clipPath>
</defs>
</svg>
